<?xml version="1.0" encoding="UTF-8"?>
<svg width="16px" height="16px" viewBox="0 0 16 16" version="1.1" xmlns="http://www.w3.org/2000/svg"
     xmlns:xlink="http://www.w3.org/1999/xlink">
  <title>Group 3</title>
  <g id="Page-1" stroke="none" stroke-width="1" fill="none" fill-rule="evenodd">
    <g id="Desktop-HD" transform="translate(-698.000000, -641.000000)">
      <g id="Group-3" transform="translate(698.000000, 641.000000)">
        <path
          d="M7.5,-6.5 L8.5,-6.5 C9.05228475,-6.5 9.5,-6.05228475 9.5,-5.5 L9.5,8.5 C9.5,9.05228475 9.05228475,9.5 8.5,9.5 L7.5,9.5 C6.94771525,9.5 6.5,9.05228475 6.5,8.5 L6.5,-5.5 C6.5,-6.05228475 6.94771525,-6.5 7.5,-6.5 Z"
          id="Rectangle-Copy-5" fill="#FE5002"
          transform="translate(8.000000, 1.500000) rotate(-270.000000) translate(-8.000000, -1.500000) "></path>
        <rect id="Rectangle-Copy-6" fill="#FFFFFF"
              transform="translate(8.000000, 1.500000) rotate(-270.000000) translate(-8.000000, -1.500000) " x="7.5"
              y="-5.5" width="1" height="14" rx="0.25"></rect>
        <path
          d="M5.35347515,7.17755009 L8.28353238,3.70515596 C8.37257446,3.59963269 8.53030084,3.58627205 8.63582411,3.67531414 C8.64659471,3.68440253 8.65657754,3.69438536 8.66566593,3.70515596 L11.5957232,7.17755009 C11.7738073,7.38859662 11.7470861,7.70404939 11.5360395,7.88213355 C11.4458363,7.95824835 11.3316154,8 11.2135896,8 L10,8 L10,8 L10,15 C10,15.5522847 9.55228475,16 9,16 L8,16 C7.44771525,16 7,15.5522847 7,15 L7,8 L7,8 L5.7356087,8 C5.45946633,8 5.2356087,7.77614237 5.2356087,7.5 C5.2356087,7.38197423 5.27736035,7.2677533 5.35347515,7.17755009 Z"
          id="Rectangle" fill="#FE5002"></path>
        <path
          d="M6.73255324,7.02339249 L8.31277386,5.18359848 C8.40273616,5.07885862 8.56057344,5.06687904 8.6653133,5.15684133 C8.67466367,5.16487247 8.68340728,5.17358412 8.69147261,5.18290501 L10.2840391,7.02339249 L10.2840391,7.02339249 L9.0039781,7.02339249 L9.0039781,14.733949 C9.0039781,14.8720202 8.89204928,14.983949 8.7539781,14.983949 L8.25,14.983949 C8.11192881,14.983949 8,14.8720202 8,14.733949 L8,7.02339249 L8,7.02339249 L6.73255324,7.02339249 Z"
          id="Rectangle-Copy-7" fill="#FFFFFF"></path>
        <rect id="Rectangle-Copy-6" fill="#FFFFFF"
              transform="translate(8.000000, 1.500000) rotate(-270.000000) translate(-8.000000, -1.500000) " x="7.5"
              y="-5.5" width="1" height="14" rx="0.25"></rect>
      </g>
    </g>
  </g>
</svg>
