<?xml version="1.0" encoding="UTF-8"?>
<svg width="16px" height="16px" viewBox="0 0 16 16" version="1.1" xmlns="http://www.w3.org/2000/svg"
     xmlns:xlink="http://www.w3.org/1999/xlink">
  <title>Group 5</title>
  <g id="Page-1" stroke="none" stroke-width="1" fill="none" fill-rule="evenodd">
    <g id="Desktop-HD" transform="translate(-771.000000, -637.000000)">
      <g id="Group-5" transform="translate(771.000000, 637.000000)">
        <path
          d="M2,5 L14,5 L13.0338475,15.5456172 C13.0102664,15.8030063 12.7943998,16 12.5359327,16 L3.45536887,16 C3.19674493,16 2.9808017,15.8027744 2.95741699,15.5452099 L2,5 L2,5 Z"
          id="Rectangle" fill="#FE5002"></path>
        <path
          d="M0.695840581,2.02878707 L5.000316,2.02878707 L5.000316,2.02878707 L5.92586924,0.139992004 C5.96785493,0.054310958 6.05494967,-5.99010794e-16 6.15036476,0 L9.85266046,0 C9.94802848,8.26645125e-16 10.0350888,0.0542579456 10.0770985,0.139874789 L11.0039327,2.02878707 L11.0039327,2.02878707 L15.3041594,2.02878707 C15.5803018,2.02878707 15.8041594,2.25264469 15.8041594,2.52878707 C15.8041594,2.58301525 15.7953377,2.6368823 15.7780399,2.68827766 L15.0573014,4.8297453 C15.0230618,4.93147841 14.9277016,5 14.8203612,5 L1.17963885,5 C1.07229838,5 0.976938176,4.93147841 0.942698586,4.8297453 L0.221960058,2.68827766 C0.133875834,2.42656068 0.274632999,2.14299077 0.536349985,2.05490654 C0.587745345,2.03760877 0.641612397,2.02878707 0.695840581,2.02878707 Z"
          id="Rectangle-Copy-9" fill="#FE5002"></path>
        <path
          d="M1.35113093,2.98954093 L5.46524882,2.98954093 C5.5574891,2.98954093 5.64223521,2.93874958 5.68572195,2.85740357 L6.62001969,1.10971192 C6.66350642,1.0283659 6.74825253,0.977574551 6.84049282,0.977574551 L9.23757948,0.977574551 C9.33542489,0.977574551 9.42427692,1.03465541 9.46495295,1.12364522 L10.2510617,2.84347027 C10.2917378,2.93246007 10.3805898,2.98954093 10.4784352,2.98954093 L14.6230602,2.98954093 C14.6782887,2.98954093 14.7230602,3.03431246 14.7230602,3.08954093 C14.7230602,3.10195057 14.7207504,3.1142518 14.7162488,3.12581616 L14.3687578,4.01849664 L14.3687578,4.01849664 L1.6543635,4.01849664 L1.25974196,3.13013718 C1.23732127,3.07966444 1.26006195,3.02057265 1.31053469,2.99815196 C1.32331575,2.99247443 1.33714559,2.98954093 1.35113093,2.98954093 Z"
          id="Rectangle-Copy-9" fill="#FFFFFF"></path>
        <path
          d="M3.0632825,5 L3.99435307,14.7679472 C4.00658252,14.8962475 4.11434321,14.9942249 4.24322503,14.9942249 L11.7910641,14.9942249 C11.9196675,14.9942249 12.0272908,14.8966577 12.039866,14.7686706 L12.9996736,5 L12.9996736,5 L3.0632825,5 Z"
          id="Path" fill="#FFFFFF"></path>
        <rect id="Rectangle" fill="#FE5002" x="6" y="7" width="1" height="6" rx="0.25"></rect>
        <rect id="Rectangle-Copy-10" fill="#FE5002" x="9" y="7" width="1" height="6" rx="0.25"></rect>
      </g>
    </g>
  </g>
</svg>
