<?xml version="1.0" encoding="UTF-8"?>
<svg width="18px" height="17px" viewBox="0 0 18 17" version="1.1" xmlns="http://www.w3.org/2000/svg"
     xmlns:xlink="http://www.w3.org/1999/xlink">
  <title>Group 4</title>
  <g id="Page-1" stroke="none" stroke-width="1" fill="none" fill-rule="evenodd">
    <g id="Desktop-HD" transform="translate(-718.000000, -640.000000)">
      <g id="Group-4" transform="translate(718.495187, 640.349599)">
        <path
          d="M1.62624653,4.82437384 L14.5607024,5.72694542 C14.8300094,5.74573777 15.0357698,5.97491599 15.0255375,6.2446839 L14.9049186,9.42472344 C14.894452,9.70066739 14.6622705,9.91587934 14.3863265,9.90541279 C14.3818656,9.90524358 14.3774071,9.90501465 14.3729523,9.90472604 L1.54318494,9.07352851 L1.54318494,9.07352851 L-0.540016772,6.91630999 L1.62624653,4.82437384 Z"
          id="Rectangle" fill="#FE5002"
          transform="translate(7.251940, 7.381152) rotate(-46.000000) translate(-7.251940, -7.381152) "></path>
        <polygon id="Rectangle-Copy" fill="#FFFFFF"
                 transform="translate(6.285993, 8.285864) rotate(-46.000000) translate(-6.285993, -8.285864) "
                 points="2.33652688 6.84336028 11.3328673 7.48423785 11.2460815 9.72836814 2.3451936 9.04848754 1.2391195 7.90311427"></polygon>
        <polygon id="Rectangle-Copy-2" fill="#FFFFFF"
                 transform="translate(11.320723, 3.666149) rotate(-46.000000) translate(-11.320723, -3.666149) "
                 points="10.3602356 2.50116087 12.3378218 2.63961074 12.279977 4.83113697 10.3036248 4.67429683"></polygon>
        <path
          d="M9.00481293,7.15040104 L10.0048129,7.15040104 C10.5570977,7.15040104 11.0048129,7.59811629 11.0048129,8.15040104 L11.0048129,22.150401 C11.0048129,22.7026858 10.5570977,23.150401 10.0048129,23.150401 L9.00481293,23.150401 C8.45252818,23.150401 8.00481293,22.7026858 8.00481293,22.150401 L8.00481293,8.15040104 C8.00481293,7.59811629 8.45252818,7.15040104 9.00481293,7.15040104 Z"
          id="Rectangle-Copy-5" fill="#FE5002"
          transform="translate(9.504813, 15.150401) rotate(-270.000000) translate(-9.504813, -15.150401) "></path>
        <rect id="Rectangle-Copy-8" fill="#FFFFFF"
              transform="translate(9.504813, 15.150401) rotate(-270.000000) translate(-9.504813, -15.150401) "
              x="9.00481293" y="8.15040104" width="1" height="14" rx="0.25"></rect>
      </g>
    </g>
  </g>
</svg>
