<?xml version="1.0" encoding="UTF-8"?>
<svg width="16px" height="7px" viewBox="0 0 16 7" version="1.1" xmlns="http://www.w3.org/2000/svg"
     xmlns:xlink="http://www.w3.org/1999/xlink">
  <title>Group 6</title>
  <g id="Page-1" stroke="none" stroke-width="1" fill="none" fill-rule="evenodd">
    <g id="Desktop-HD" transform="translate(-785.000000, -655.000000)">
      <g id="Group-6" transform="translate(785.000000, 655.018497)">
        <path
          d="M5.00230117,0.961103972 L5.00230117,1.99164421 L5.00230117,1.99164421 L11.0102468,1.99164421 L11.0102468,0.96249173 C11.0102468,0.686349355 11.2341044,0.46249173 11.5102468,0.46249173 C11.6131473,0.46249173 11.7135418,0.49424005 11.7977323,0.553404837 L15.707317,3.30086249 C15.8202832,3.38024942 15.8475046,3.53618247 15.7681177,3.64914869 C15.7512623,3.67313365 15.7303197,3.69396714 15.7062471,3.71069709 L11.7955925,6.42851642 C11.5688342,6.5861085 11.2572566,6.53003817 11.0996645,6.30327983 C11.0414484,6.21951305 11.0102468,6.11994385 11.0102468,6.01793412 L11.0102468,4.94968224 L11.0102468,4.94968224 L5.00230117,4.99093753 L5.00230117,6.0193028 C5.00230117,6.29544518 4.77844355,6.5193028 4.50230117,6.5193028 C4.4004921,6.5193028 4.30110901,6.48822369 4.21743871,6.43022053 L0.294732191,3.71086387 C0.181260395,3.63220127 0.153041964,3.47644557 0.231704562,3.36297377 C0.248518979,3.33871876 0.269495375,3.31763265 0.293662342,3.30069194 L4.21529901,0.551677839 C4.44141882,0.393170921 4.75322039,0.447981999 4.91172731,0.674101808 C4.97067695,0.758197079 5.00230117,0.858405017 5.00230117,0.961103972 Z"
          id="Rectangle" fill="#FE5002"></path>
        <path
          d="M4.00557573,1.98202257 L4.00557573,2.97203977 L12.0097351,2.97203977 L12.0097351,1.98202257 L13.9509764,3.40651253 C13.995503,3.43918626 14.0051116,3.50176944 13.9724378,3.54629597 C13.9664124,3.55450718 13.959168,3.56174972 13.9509552,3.56777297 L12.0097351,4.99145957 L12.0097351,4.99145957 L12.0097351,3.98150336 L4.00557573,3.98150336 L4.00557573,4.99145957 L2.04780815,3.5680161 C2.00313869,3.53553806 1.99325558,3.47299765 2.02573363,3.42832818 C2.03188562,3.4198669 2.0393272,3.41242335 2.04778687,3.40626913 L4.00557573,1.98202257 L4.00557573,1.98202257 Z"
          id="Rectangle" fill="#FFFFFF"></path>
      </g>
    </g>
  </g>
</svg>
