<?xml version="1.0" encoding="UTF-8"?>
<svg width="18px" height="18px" viewBox="0 0 18 18" version="1.1" xmlns="http://www.w3.org/2000/svg"
     xmlns:xlink="http://www.w3.org/1999/xlink">
  <title>Group 7</title>
  <g id="Page-1" stroke="none" stroke-width="1" fill="none" fill-rule="evenodd">
    <g id="Desktop-HD" transform="translate(-824.000000, -637.000000)">
      <g id="Group-7" transform="translate(824.775235, 637.775195)">
        <path
          d="M6.24851623,-0.407400945 L10.2162302,-0.400675605 C10.7685141,-0.399739475 11.2154699,0.0487340154 11.2145337,0.601017972 C11.2145319,0.60209115 11.2145284,0.603164325 11.2145231,0.604237492 L11.189354,5.72553087 C11.1866504,6.27566032 10.7400927,6.72029127 10.1899567,6.72061616 L8.95829079,6.72134353 L8.95829079,6.72134353 L8.912861,9.39268291 L10.1706064,9.41365307 C10.7136776,9.4227076 11.1502277,9.86359511 11.1539129,10.4067292 L11.1908104,15.8448017 C11.1945576,16.3970737 10.7498903,16.8478164 10.1976183,16.8515635 C10.1955436,16.8515776 10.1934689,16.8515852 10.1913942,16.8515864 L6.26151005,16.8537902 C5.71112444,16.8540989 5.2639504,16.409594 5.26096399,15.8592164 L5.23124917,10.3829519 C5.22825246,9.83067524 5.6735318,9.38053726 6.22580842,9.37754055 C6.22729775,9.37753246 6.22878709,9.37752771 6.23027643,9.37752628 L7.50355122,9.37630646 L7.50355122,9.37630646 L7.54260457,6.69842591 L6.23186255,6.69508647 C5.67965937,6.69347663 5.23311875,6.24474593 5.23421058,5.69254148 L5.24617288,0.590901292 C5.24811725,0.0388733194 5.6964849,-0.407686661 6.24851623,-0.407400945 Z"
          id="Rectangle-Copy-11" fill="#FE5002"
          transform="translate(8.222626, 8.222626) rotate(-315.000000) translate(-8.222626, -8.222626) "></path>
        <path
          d="M2.15562111,9.62111286 L7.31226704,9.60404329 C7.45011668,9.60358698 7.56232257,9.71480061 7.56309071,9.85264886 L7.56964427,11.0287427 L7.56964427,11.0287427 L5.70023569,11.0113107 C5.5621705,11.0100232 5.44920288,11.1209035 5.44791543,11.2589687 C5.44790171,11.2604407 5.44790098,11.2619129 5.44791326,11.2633849 L5.45576354,12.2045829 C5.45691511,12.3426493 5.56977357,12.4536407 5.70783995,12.4524891 C5.70800559,12.4524877 5.70817123,12.4524862 5.70833686,12.4524845 L7.56541198,12.4333035 L7.56541198,12.4333035 L7.56687859,13.5517205 C7.56705872,13.6890804 7.45638391,13.8008577 7.31902892,13.8020391 L2.14348154,13.8465527 C2.00541546,13.8477402 1.89252815,13.7367782 1.89134067,13.5987121 C1.8913316,13.5976573 1.89132921,13.5966024 1.89133349,13.5955475 L1.90645072,9.87009704 C1.90700807,9.73274579 2.01826948,9.62156753 2.15562111,9.62111286 Z"
          id="Rectangle-Copy-12" fill="#FFFCFA"
          transform="translate(4.729975, 11.725974) rotate(-45.000000) translate(-4.729975, -11.725974) "></path>
        <path
          d="M9.37595852,2.44533751 L14.3449123,2.38869563 C14.4829745,2.38712184 14.5961718,2.49776757 14.5977456,2.63582978 C14.5977605,2.63713753 14.5977652,2.63844537 14.5977595,2.63975318 L14.5809065,6.56342376 C14.5802008,6.70144912 14.4678611,6.81287818 14.3298345,6.81246052 L9.37116708,6.79340041 C9.23330265,6.79287049 9.12188907,6.68083351 9.1221284,6.54296827 L9.12427895,5.30413738 L9.12427895,5.30413738 L11.2760404,5.30954834 C11.4141111,5.30989554 11.526321,5.19824855 11.5266682,5.0601778 C11.5266718,5.05877865 11.5266635,5.05737951 11.5266436,5.0559805 L11.5147044,4.21967047 C11.5127438,4.08233203 11.4003522,3.97229632 11.263003,3.97324506 L9.12656371,3.98800259 L9.12656371,3.98800259 L9.1288085,2.69488728 C9.12904596,2.55809691 9.23917683,2.44689671 9.37595852,2.44533751 Z"
          id="Rectangle-Copy-13" fill="#FFFCFA"
          transform="translate(11.860273, 4.599611) rotate(-45.000000) translate(-11.860273, -4.599611) "></path>
      </g>
    </g>
  </g>
</svg>
